<?xml version="1.0"?><svg width="640" height="480" xmlns="http://www.w3.org/2000/svg">
 <title>Fighter Jet royalblue</title>
 <g>
  <title>Layer 1</title>
  <g id="layer1">
   <path d="m324.393799,373.597412c-0.439819,-4.074219 -1.124878,-9.308929 -1.522339,-11.63266l-0.722656,-4.225006l-7.259827,-0.264465l-7.259766,-0.264465l-1.341492,-3.584412c-0.773285,-2.066284 -2.181396,-3.705292 -3.324615,-3.869781c-1.53833,-0.221313 -28.56955,4.637024 -42.111908,7.568817c-1.868073,0.40448 -2.101105,-0.279114 -2.084412,-6.114899l0.018738,-6.570221l21.013031,-25.104858l21.013,-25.104797l-0.047668,-7.668304l-0.047668,-7.668274l-33.302734,25.398895c-18.316452,13.96933 -33.856903,25.383789 -34.534271,25.365448c-2.063507,-0.055908 -8.186172,-19.242828 -7.285339,-22.830414c0.456573,-1.818237 8.03511,-11.423401 18.009308,-22.825195c11.150711,-12.746704 22.965454,-27.877838 33.517548,-42.925705l16.296509,-23.239822l0.84726,-10.101288l0.847229,-10.101288l6.892914,0l6.892914,0l0.764282,-4.165848c0.420319,-2.291229 0.764252,-7.959732 0.764252,-12.596741c0,-10.262558 3.208282,-43.599152 4.910889,-51.028381c1.454346,-6.345909 9.837433,-29.181549 10.712708,-29.181549c0.876404,0 9.260162,22.841965 10.710632,29.181549c1.741913,7.613388 4.907776,39.666779 4.921967,49.833084c0.006531,4.691498 0.352936,10.651245 0.769745,13.243927l0.757874,4.713959l6.91217,0l6.91214,0l0.840881,10.101288l0.840851,10.101288l16.353485,23.345261c10.363983,14.794998 22.190582,29.994675 32.290863,41.500595c18.227905,20.764618 19.641907,22.628021 19.641907,25.884186c0,3.674805 -6.424011,21.053925 -7.795074,21.088348c-0.670227,0.016815 -16.203247,-11.397675 -34.517914,-25.365509l-33.299286,-25.396088l-0.032288,7.632111l-0.032288,7.632111l21.013,25.104797l21.013,25.104828l0,6.606415c0,5.866699 -0.235504,6.55545 -2.10318,6.151093c-9.500153,-2.056702 -39.977203,-7.746704 -41.493256,-7.746704c-1.874023,0 -2.305176,0.638947 -3.786469,5.611847c-0.708008,2.376831 -1.021027,2.469208 -8.369568,2.469208l-7.634094,0l-0.729767,4.264984c-0.401367,2.345764 -1.08963,7.598419 -1.529449,11.672638c-0.439789,4.074158 -1.184937,7.407593 -1.655884,7.407593c-0.470947,0 -1.216064,-3.333435 -1.655884,-7.407593z" id="path1368" fill="#4169e1"/>
  </g>
 </g>
</svg>